{
  "accessors": [
    {
      "bufferView": 1,
      "componentType": 5126,
      "count": 482,
      "max": [
        1.0,
        1.0,
        1.0
      ],
      "min": [
        -1.0,
        -1.0,
        -1.0
      ],
      "type": "VEC3"
    },
    {
      "bufferView": 1,
      "byteOffset": 5784,
      "componentType": 5126,
      "count": 482,
      "max": [
        1.0,
        1.0,
        1.0
      ],
      "min": [
        -1.0,
        -1.0,
        -1.0
      ],
      "type": "VEC3"
    },
    {
      "bufferView": 0,
      "componentType": 5125,
      "count": 2880,
      "type": "SCALAR"
    },
    {
      "bufferView": 1,
      "byteOffset": 11568,
      "componentType": 5126,
      "count": 56488,
      "max": [
        270.76171875,
        139.86061096191406,
        323.9981689453125
      ],
      "min": [
        -254.57290649414063,
        -275.9063415527344,
        -240.04623413085938
      ],
      "type": "VEC3"
    },
    {
      "bufferView": 1,
      "byteOffset": 689424,
      "componentType": 5126,
      "count": 56488,
      "max": [
        1.0,
        1.0,
        1.0
      ],
      "min": [
        -1.0,
        -1.0,
        -1.0
      ],
      "type": "VEC3"
    },
    {
      "bufferView": 0,
      "byteOffset": 11520,
      "componentType": 5125,
      "count": 337536,
      "type": "SCALAR"
    },
    {
      "bufferView": 2,
      "componentType": 5126,
      "count": 196,
      "max": [
        8.333330154418945
      ],
      "min": [
        0.20833000540733337
      ],
      "type": "SCALAR"
    },
    {
      "bufferView": 3,
      "componentType": 5126,
      "count": 196,
      "max": [
        0.707099974155426,
        0.7071099877357483,
        0.7071099877357483,
        0.707099974155426
      ],
      "min": [
        -0.0,
        -0.7070199847221375,
        -0.7070199847221375,
        -0.0
      ],
      "type": "VEC4"
    }
  ],
  "animations": [
    {
      "channels": [
        {
          "sampler": 0,
          "target": {
            "node": 6,
            "path": "rotation"
          }
        }
      ],
      "name": "Action",
      "samplers": [
        {
          "input": 6,
          "interpolation": "LINEAR",
          "output": 7
        }
      ]
    }
  ],
  "asset": {
    "extras": {
      "author": "Wayne Pearce (https://sketchfab.com/WaynePearce10)",
      "license": "CC-BY-4.0 (http://creativecommons.org/licenses/by/4.0/)",
      "source": "https://sketchfab.com/3d-models/simple-galaxy-simulation-58e7b5996f674caeaa3ec2c9df371212",
      "title": "Simple Galaxy Simulation"
    },
    "generator": "Sketchfab-12.68.0",
    "version": "2.0"
  },
  "bufferViews": [
    {
      "buffer": 0,
      "byteLength": 1361664,
      "name": "floatBufferViews",
      "target": 34963
    },
    {
      "buffer": 0,
      "byteLength": 1367280,
      "byteOffset": 1361664,
      "byteStride": 12,
      "name": "floatBufferViews",
      "target": 34962
    },
    {
      "buffer": 0,
      "byteLength": 784,
      "byteOffset": 2728944,
      "name": "floatBufferViews"
    },
    {
      "buffer": 0,
      "byteLength": 3136,
      "byteOffset": 2729728,
      "byteStride": 16,
      "name": "floatBufferViews"
    }
  ],
  "buffers": [
    {
      "byteLength": 2732864,
      "uri": "scene.bin"
    }
  ],
  "materials": [
    {
      "alphaMode": "BLEND",
      "doubleSided": true,
      "emissiveFactor": [
        0.5,
        0.3919572326430665,
        0.3919572326430665
      ],
      "name": "Root",
      "pbrMetallicRoughness": {
        "baseColorFactor": [
          1.0,
          1.0,
          1.0,
          0.5592606707317074
        ],
        "metallicFactor": 0.0
      }
    }
  ],
  "meshes": [
    {
      "name": "Sphere_0",
      "primitives": [
        {
          "attributes": {
            "NORMAL": 1,
            "POSITION": 0
          },
          "indices": 2,
          "material": 0,
          "mode": 4
        }
      ]
    },
    {
      "name": "Sphere.002_0",
      "primitives": [
        {
          "attributes": {
            "NORMAL": 4,
            "POSITION": 3
          },
          "indices": 5,
          "material": 0,
          "mode": 4
        }
      ]
    }
  ],
  "nodes": [
    {
      "children": [
        1
      ],
      "matrix": [
        1.0,
        0.0,
        0.0,
        0.0,
        0.0,
        2.220446049250313e-16,
        -1.0,
        0.0,
        0.0,
        1.0,
        2.220446049250313e-16,
        0.0,
        0.0,
        0.0,
        0.0,
        1.0
      ],
      "name": "Sketchfab_model"
    },
    {
      "children": [
        2,
        4,
        6
      ],
      "name": "Root"
    },
    {
      "children": [
        3
      ],
      "matrix": [
        -0.29086000000000006,
        0.9551700000000001,
        -0.05519000000000001,
        0.0,
        -0.7711,
        -0.19988000000000003,
        0.6045200000000001,
        0.0,
        0.5663900000000001,
        0.21839000000000003,
        0.7946700000000001,
        0.0,
        4.076250000000001,
        1.00545,
        5.903860000000001,
        1.0
      ],
      "name": "Lamp"
    },
    {
      "name": "Lamp"
    },
    {
      "children": [
        5
      ],
      "matrix": [
        5.0,
        0.0,
        0.0,
        0.0,
        0.0,
        5.0,
        0.0,
        0.0,
        0.0,
        0.0,
        5.0,
        0.0,
        0.0,
        0.0,
        0.0,
        1.0
      ],
      "name": "Sphere"
    },
    {
      "mesh": 0,
      "name": "Sphere_0"
    },
    {
      "children": [
        7
      ],
      "name": "Sphere.002",
      "rotation": [
        0.707096517086029,
        0.0038199813570827246,
        0.0038199813570827246,
        0.707096517086029
      ],
      "scale": [
        2.143749952316284,
        2.143749952316284,
        2.143749952316284
      ]
    },
    {
      "mesh": 1,
      "name": "Sphere.002_0"
    }
  ],
  "scene": 0,
  "scenes": [
    {
      "name": "Sketchfab_Scene",
      "nodes": [
        0
      ]
    }
  ]
}
