<?xml version="1.0" standalone="no"?>
<!DOCTYPE svg PUBLIC "-//W3C//DTD SVG 20010904//EN"
 "http://www.w3.org/TR/2001/REC-SVG-20010904/DTD/svg10.dtd">
<svg version="1.0" xmlns="http://www.w3.org/2000/svg"
 width="1024.000000pt" height="1024.000000pt" viewBox="0 0 1024.000000 1024.000000"
 preserveAspectRatio="xMidYMid meet">

<g transform="translate(0.000000,1024.000000) scale(0.100000,-0.100000)"
fill="#000000" stroke="none">
<path d="M0 5120 l0 -5120 5120 0 5120 0 0 5120 0 5120 -5120 0 -5120 0 0
-5120z m6442 4152 c35 -40 50 -82 29 -82 -5 0 -20 17 -33 37 -12 20 -35 55
-50 77 -52 81 -33 69 54 -32z m510 -344 c-7 -7 -12 -21 -12 -32 -1 -20 -1 -20
-11 -3 -8 14 -7 23 8 36 10 10 20 17 22 15 3 -3 -1 -10 -7 -16z m-572 -103
c16 -8 40 -25 53 -38 13 -12 40 -34 60 -50 43 -33 90 -92 85 -108 -2 -6 -15 5
-28 24 -21 29 -112 109 -192 169 -29 21 -17 23 22 3z m83 -116 c20 -17 42 -40
48 -51 7 -12 -13 0 -45 27 -31 27 -56 50 -56 52 0 10 20 -1 53 -28z m-3441
-165 c17 -5 26 -24 11 -24 -27 0 -113 73 -113 96 0 9 16 -1 42 -26 23 -22 50
-42 60 -46z m-381 -636 c11 -21 11 -22 -4 -9 -10 7 -17 17 -17 22 0 15 9 10
21 -13z m3265 -165 c16 -9 24 -9 34 0 9 9 11 9 6 0 -3 -7 2 -14 13 -18 11 -3
30 -22 41 -41 13 -19 29 -33 37 -32 10 2 17 -5 18 -20 1 -13 8 -28 16 -33 8
-5 10 -9 4 -9 -5 0 -3 -6 5 -13 25 -20 41 -55 28 -59 -8 -3 -8 -10 1 -25 6
-12 8 -30 5 -40 -4 -13 -3 -14 3 -5 7 9 12 6 21 -13 6 -14 8 -25 3 -25 -4 0
-5 -21 -1 -47 5 -27 4 -49 -1 -51 -5 -2 -9 -13 -9 -25 0 -18 2 -19 10 -7 8 13
10 12 10 -2 0 -10 -4 -18 -10 -18 -5 0 -7 -7 -4 -15 4 -8 1 -22 -6 -30 -7 -8
-9 -15 -4 -15 5 0 2 -5 -6 -11 -13 -9 -13 -10 0 -8 27 3 40 -1 40 -12 0 -5 -5
-7 -10 -4 -7 4 -9 -3 -6 -21 4 -21 -2 -33 -25 -55 -17 -16 -36 -29 -43 -30 -6
0 -20 -2 -31 -5 -82 -17 -373 -32 -392 -21 -5 3 -15 2 -23 -3 -8 -5 -22 -4
-33 1 -14 8 -23 6 -38 -7 -18 -16 -19 -16 -19 1 0 15 -3 16 -12 7 -7 -7 -24
-12 -39 -12 -15 0 -31 -5 -35 -11 -4 -8 -9 -7 -15 2 -7 11 -9 10 -9 -3 0 -10
-7 -18 -15 -18 -8 0 -15 -9 -15 -19 0 -14 -6 -19 -20 -16 -11 2 -20 1 -20 -3
0 -4 -16 -16 -36 -27 -26 -14 -43 -34 -60 -70 -35 -77 -57 -129 -60 -145 -2
-8 -6 -30 -9 -49 -4 -19 -12 -40 -19 -47 -17 -17 -196 -31 -196 -15 0 6 5 11
10 11 6 0 10 31 10 73 0 39 4 86 9 102 11 39 -8 138 -25 131 -13 -5 -54 29
-54 44 0 5 -10 12 -22 16 -13 4 -26 11 -30 17 -4 7 -11 7 -21 -2 -13 -10 -17
-9 -24 4 -5 9 -25 19 -44 22 -19 3 -36 8 -39 11 -3 4 -26 7 -52 7 -27 0 -48 4
-48 10 0 5 -4 4 -8 -2 -5 -8 -27 -12 -60 -10 -29 1 -52 0 -52 -3 0 -9 -221 -3
-380 10 -109 9 -162 18 -215 38 -93 34 -164 33 -242 -2 -64 -30 -216 -142
-278 -205 -31 -33 -46 -41 -75 -41 -20 0 -41 5 -48 12 -25 25 -11 161 30 291
22 69 41 84 68 52 7 -8 24 -15 39 -15 23 0 117 -28 98 -30 -5 0 -5 -5 -2 -10
9 -15 37 9 31 26 -3 7 0 15 7 18 8 3 9 7 2 13 -6 4 -11 26 -13 48 -4 54 -6 68
-15 83 -5 7 -3 12 3 12 7 0 10 5 8 12 -8 22 154 154 173 142 4 -2 2 -17 -4
-34 -15 -38 -3 -49 33 -28 l28 16 21 -48 c26 -61 67 -110 92 -110 24 0 24 7
-2 50 l-21 34 22 18 c23 19 36 20 155 20 255 -2 669 26 790 52 124 27 166 40
265 81 237 98 486 197 502 200 10 2 25 8 33 13 24 13 246 9 271 -5z m1079
-494 c11 -5 57 -59 103 -120 l82 -110 0 -95 0 -96 -77 7 c-116 9 -136 14 -123
30 8 10 -4 26 -55 72 -36 32 -92 74 -124 93 -32 19 -70 43 -84 53 -14 10 -32
20 -39 21 -29 5 -58 18 -58 25 0 5 17 5 38 1 21 -4 48 -5 59 -4 18 3 73 -25
156 -80 l27 -18 0 109 c0 67 4 113 11 120 12 12 52 9 84 -8z m-3207 -396 c-15
-2 -42 -2 -60 0 -18 2 -6 4 27 4 33 0 48 -2 33 -4z m3597 -78 c28 -13 63 -34
80 -48 28 -24 30 -30 34 -112 2 -48 0 -121 -4 -161 -9 -98 -19 -103 -110 -58
-39 18 -79 34 -90 34 -41 1 -44 10 -34 95 6 44 9 126 7 183 l-4 102 36 -6 c19
-3 58 -16 85 -29z m-4342 -12 c-5 -16 -8 -94 -8 -176 l0 -147 -28 0 c-15 0
-53 -9 -84 -20 -97 -34 -93 -40 -93 115 0 133 0 135 28 165 22 25 150 87 185
89 4 1 4 -11 0 -26z m235 -59 c33 -23 29 -60 -10 -84 -40 -24 -76 -25 -106 -4
-30 21 -28 58 4 83 32 25 81 27 112 5z m209 -113 c-40 -45 -64 -87 -83 -146
-7 -23 -13 -31 -13 -19 -2 43 33 118 74 160 52 55 70 58 22 5z m3444 -101 c33
-89 42 -157 36 -295 -6 -151 -22 -232 -73 -368 -26 -69 -48 -110 -76 -140 -22
-23 -37 -36 -33 -29 3 7 6 64 6 127 -1 63 4 126 9 141 9 22 14 25 37 19 15 -3
32 -7 38 -8 17 -3 63 152 75 254 13 110 4 190 -30 265 -12 27 -31 69 -42 94
-11 25 -22 50 -25 55 -2 6 10 -6 26 -25 17 -19 41 -59 52 -90z m-2909 -92
c-14 -40 -15 -54 -4 -94 15 -57 62 -124 103 -148 40 -24 127 -32 174 -16 55
18 118 86 134 143 18 64 35 76 65 47 14 -12 30 -35 36 -51 11 -25 17 -28 53
-26 32 1 42 -2 45 -15 2 -10 -6 -19 -20 -23 -13 -4 -25 -11 -28 -16 -8 -11
-281 -79 -319 -79 -29 0 -45 -18 -18 -22 6 -1 -22 -4 -63 -7 -173 -13 -298 39
-371 154 -10 17 -19 39 -19 50 1 14 7 8 21 -20 29 -58 66 -92 138 -128 59 -29
74 -32 170 -33 l106 -2 -95 8 c-148 13 -232 51 -275 124 -27 47 -32 101 -11
128 17 22 94 57 149 67 23 4 43 7 44 6 1 0 -5 -22 -15 -47z m142 30 c22 -36
-51 -77 -82 -46 -16 16 -15 41 0 56 17 17 69 11 82 -10z m2254 -80 c19 -16 28
-34 30 -61 3 -34 -1 -43 -35 -75 -73 -70 -272 -126 -329 -94 -15 8 -10 10 21
5 124 -16 214 67 215 200 l0 57 35 -4 c20 -3 48 -15 63 -28z m-3162 -245 c58
-209 115 -385 141 -437 34 -68 113 -149 179 -183 29 -15 54 -31 54 -35 0 -4
-9 -23 -19 -42 -48 -85 -30 -144 44 -146 22 -1 86 8 143 19 61 12 181 25 295
31 357 20 475 48 558 136 39 41 137 136 189 182 19 17 32 32 28 32 -4 0 -14
-7 -23 -16 -18 -19 -33 -11 -17 9 6 7 36 63 66 123 50 102 77 177 121 337 20
72 57 115 110 127 68 16 157 -10 170 -49 7 -22 -1 -184 -14 -300 -9 -68 -8
-88 4 -112 8 -15 15 -33 15 -39 0 -6 18 -39 40 -72 22 -34 40 -69 40 -78 0
-15 -42 -60 -56 -60 -3 0 -18 -8 -32 -19 -15 -10 -38 -22 -52 -26 -14 -4 -31
-12 -39 -18 -15 -13 -12 -12 -104 -29 -65 -12 -71 -11 -112 11 -39 21 -47 22
-82 11 -48 -16 -101 -43 -149 -75 -41 -28 -84 -30 -97 -5 -4 8 -5 -3 -2 -25 8
-54 44 -123 78 -149 27 -20 46 -23 217 -41 73 -7 132 -28 173 -62 16 -13 35
-23 42 -23 7 0 48 -14 90 -31 76 -30 103 -39 137 -43 10 -1 21 -5 24 -9 4 -4
13 -2 21 4 10 9 20 7 39 -6 15 -9 23 -12 20 -6 -11 17 10 13 24 -4 7 -8 25
-15 41 -15 20 0 29 -5 29 -16 0 -10 6 -14 15 -10 10 4 15 -1 15 -14 0 -11 -7
-20 -15 -20 -8 0 -15 -9 -15 -20 0 -11 -5 -20 -11 -20 -5 0 -8 4 -4 9 3 5 1
12 -5 16 -5 3 -10 1 -10 -4 0 -6 -7 -11 -16 -11 -9 0 -14 -6 -11 -12 2 -7 11
-12 19 -12 8 1 15 -5 15 -13 0 -15 -17 -13 -144 14 -70 14 -77 14 -164 -8 -81
-20 -97 -21 -142 -10 -125 30 -107 34 -387 -75 -107 -41 -194 -51 -238 -28
-76 40 -140 20 -227 -71 -27 -29 -54 -52 -60 -51 -5 1 -11 -16 -13 -36 -2 -21
-9 -39 -15 -40 -7 0 -16 -2 -22 -2 -5 -1 -16 -5 -23 -10 -7 -4 -16 -5 -19 -2
-4 3 -1 6 5 6 7 0 12 4 12 9 0 15 -38 1 -45 -16 -4 -12 -14 -3 -39 32 -19 26
-33 52 -32 59 10 50 22 86 42 122 13 24 24 48 24 53 0 6 18 40 40 76 22 36 40
72 40 79 0 30 -64 -9 -141 -86 -49 -48 -89 -79 -108 -83 -18 -4 -31 -2 -31 3
0 5 -13 12 -30 16 -20 3 -30 12 -30 23 0 15 -2 16 -10 3 -8 -13 -10 -13 -10 2
0 11 -5 15 -15 12 -9 -4 -19 3 -26 20 -7 14 -15 26 -19 26 -4 0 -10 9 -13 21
-3 11 -14 23 -24 25 -10 3 -25 19 -32 35 l-13 30 -17 -23 c-10 -15 -16 -43
-16 -78 1 -63 -16 -86 -27 -37 -4 19 -5 10 -2 -25 3 -42 1 -58 -8 -58 -9 0
-10 -2 -2 -8 6 -4 14 -34 17 -67 4 -33 9 -87 12 -120 6 -60 9 -69 39 -138 24
-56 2 -44 -65 36 -100 119 -149 235 -193 457 -49 247 -126 771 -126 859 0 74
-18 192 -50 321 -15 63 -30 135 -34 160 l-7 45 21 -42 c11 -23 36 -100 56
-170z m-400 166 c33 -18 84 -45 114 -60 30 -16 62 -34 71 -41 35 -29 52 -92
27 -101 -7 -3 -81 31 -165 74 -84 43 -164 79 -178 79 -33 0 -69 -38 -91 -96
-25 -64 -15 -151 27 -239 41 -86 108 -195 120 -195 5 0 10 -8 10 -17 1 -15 2
-15 6 -2 2 9 -19 63 -47 120 -54 110 -62 161 -27 167 13 3 22 -7 34 -36 9 -25
20 -39 28 -35 9 3 17 -13 24 -54 28 -141 83 -310 134 -407 37 -71 177 -197
177 -159 0 3 -27 31 -60 60 -115 105 -172 256 -173 463 -1 122 13 194 39 204
32 12 174 -118 174 -159 0 -29 -7 -33 -88 -49 -51 -10 -57 -14 -60 -38 -4 -30
34 -164 48 -173 5 -3 20 1 32 9 13 8 37 17 54 20 28 6 33 3 56 -31 22 -34 67
-203 60 -227 -2 -5 5 -6 14 -2 10 4 25 -1 35 -10 23 -21 24 -34 4 -34 -8 0
-23 -17 -33 -37 -18 -34 -18 -38 -3 -65 14 -25 14 -29 1 -38 -13 -8 -12 -11 5
-24 11 -9 32 -16 47 -16 46 0 78 -71 44 -99 -17 -14 -113 -22 -142 -11 -27 11
-48 62 -41 100 6 28 6 29 -21 19 -25 -10 -30 -7 -65 33 -48 54 -127 169 -157
228 -13 25 -59 105 -102 177 -44 73 -77 137 -73 143 3 5 1 10 -5 10 -6 0 -20
21 -32 48 -11 26 -28 65 -38 87 -78 175 -47 350 75 426 42 27 74 24 141 -12z
m4783 6 c37 -31 84 -125 79 -157 -3 -19 -7 -15 -25 25 -13 26 -48 73 -79 103
-52 50 -55 54 -31 54 14 0 39 -11 56 -25z m-2938 -12 c9 -9 14 -40 14 -76 0
-33 5 -62 10 -64 9 -3 45 65 45 86 0 6 5 13 12 17 8 5 10 -24 5 -117 -10 -209
-71 -374 -176 -479 -100 -101 -232 -147 -448 -157 -265 -13 -521 58 -623 174
-72 82 -143 298 -156 475 l-7 93 42 -80 c64 -120 78 -132 154 -129 34 2 70 3
80 3 10 1 16 4 14 9 -3 4 6 8 20 8 13 1 22 0 19 -3 -3 -3 7 -15 22 -28 90 -74
188 -85 472 -49 63 8 121 14 129 14 29 0 -1 -14 -42 -19 -23 -3 -40 -10 -37
-16 3 -5 8 -9 12 -8 4 2 30 5 59 8 99 10 161 35 130 54 -7 5 -3 12 14 19 27
12 33 4 13 -17 -11 -10 -10 -11 5 -6 9 4 17 11 17 17 0 15 23 34 55 45 29 9
93 78 83 88 -3 3 -25 8 -49 11 -23 3 -47 8 -52 11 -15 9 16 23 53 23 47 0 54
7 71 63 15 51 20 55 40 30z m1827 -13 c-7 -11 -17 -20 -22 -20 -5 0 -1 9 9 20
10 11 20 20 22 20 2 0 -2 -9 -9 -20z m120 -20 c60 -41 92 -88 92 -136 0 -13
-7 -27 -14 -30 -25 -10 -75 28 -87 66 -7 19 -18 40 -24 45 -7 6 -16 23 -19 38
-4 15 -11 25 -15 22 -5 -3 -7 4 -4 15 3 11 7 20 9 20 2 0 30 -18 62 -40z m502
-44 c0 -46 -16 -130 -55 -281 -42 -166 -61 -267 -81 -428 -53 -438 -106 -712
-160 -834 -13 -29 -24 -53 -26 -53 -3 0 -2 99 4 400 3 182 -4 273 -27 345 -21
67 -35 115 -41 143 -1 6 2 12 8 12 22 0 155 148 185 205 35 67 72 177 134 403
23 83 45 152 50 152 5 0 9 -29 9 -64z m-1187 -23 c33 -27 24 -29 -27 -8 -20 8
-36 22 -36 30 0 18 25 10 63 -22z m-2042 -61 c-7 -2 -18 1 -23 6 -8 8 -4 9 13
5 13 -4 18 -8 10 -11z m2122 -256 c32 -3 62 -8 67 -11 4 -3 46 -12 91 -21 46
-8 100 -24 121 -34 21 -10 35 -13 31 -8 -4 7 -1 8 8 2 8 -4 19 -9 26 -10 6 -1
22 -12 35 -23 19 -19 20 -23 8 -31 -13 -9 -13 -10 1 -10 16 0 18 -46 4 -100
-4 -14 -7 -34 -6 -45 0 -10 -5 -25 -11 -32 -8 -10 -7 -13 3 -14 8 0 1 -5 -16
-10 -35 -11 -264 -13 -333 -4 -125 18 -302 83 -302 112 0 8 -4 12 -9 9 -5 -4
-8 2 -6 11 1 10 8 17 13 16 6 -2 9 4 6 12 -4 8 -1 15 5 15 6 0 10 3 9 8 -4 16
14 52 28 52 8 0 16 15 20 40 6 34 10 40 31 40 18 0 24 4 19 15 -3 9 0 15 10
15 8 0 13 4 10 8 -5 9 37 8 137 -2z m-500 -285 c48 -39 77 -70 77 -82 0 -28
-12 -24 -69 21 -50 39 -111 113 -111 133 0 11 -3 13 103 -72z m-2278 -131 c14
-22 -15 -8 -34 16 -23 30 -27 65 -9 97 10 20 13 16 24 -40 7 -35 16 -67 19
-73z m3789 -6 c10 -38 0 -41 -12 -5 -6 17 -7 31 -3 31 5 0 12 -12 15 -26z
m-1167 -70 c79 -23 189 -44 297 -58 178 -24 226 -36 226 -59 0 -25 -22 -77
-32 -77 -6 0 -8 -6 -5 -14 3 -8 -5 -22 -20 -33 -14 -10 -34 -26 -44 -35 -15
-14 -30 -16 -81 -11 -35 3 -87 6 -115 7 -29 0 -53 5 -53 9 0 5 -4 6 -10 2 -5
-3 -18 0 -28 6 -25 16 -73 3 -79 -20 -4 -17 -52 -37 -76 -32 -5 1 -6 -3 -2 -8
3 -6 -6 -13 -20 -17 -13 -3 -22 -10 -19 -15 3 -5 -3 -9 -12 -9 -10 0 -15 3
-11 6 7 7 -29 44 -45 45 -7 0 -4 4 7 9 17 7 17 9 3 9 -24 1 -23 22 2 53 10 14
17 28 13 31 -3 4 -1 12 5 19 23 30 -4 162 -38 183 -13 8 -13 45 0 45 6 0 68
-16 137 -36z m-132 -334 c3 -5 2 -10 -4 -10 -5 0 -13 5 -16 10 -3 6 -2 10 4
10 5 0 13 -4 16 -10z m-534 -352 c135 3 190 -7 167 -32 -8 -8 -15 -10 -19 -4
-4 6 -13 1 -21 -11 -13 -18 -28 -22 -109 -27 -137 -7 -154 -11 -191 -46 -40
-37 -164 -92 -232 -102 -30 -4 -37 -29 -15 -49 22 -20 137 -60 150 -51 4 2 11
-1 15 -7 3 -6 0 -15 -7 -20 -8 -5 -11 -9 -7 -9 3 0 -7 -14 -24 -32 -17 -18
-25 -34 -20 -36 6 -2 8 -10 5 -18 -8 -23 22 -17 100 19 64 29 82 32 162 32
134 0 215 -45 215 -117 0 -15 4 -29 9 -32 10 -6 7 -129 -4 -146 -5 -9 -4 -11
3 -6 16 10 14 -5 -3 -27 -7 -11 -12 -27 -10 -38 2 -12 -2 -19 -11 -19 -8 0
-12 -5 -9 -10 3 -6 -1 -13 -9 -16 -9 -3 -14 -9 -11 -13 2 -4 -1 -8 -8 -8 -7 0
-20 -4 -30 -8 -10 -4 -17 -4 -15 1 1 5 -10 29 -25 54 -15 25 -27 41 -27 36 0
-5 -6 -3 -14 3 -21 17 -41 4 -116 -76 -36 -38 -84 -79 -106 -90 -67 -34 -178
-31 -254 7 -46 23 -135 115 -156 160 -9 19 -25 47 -35 62 -11 14 -19 35 -19
45 0 10 -4 23 -9 29 -5 5 -14 25 -19 44 -5 19 -14 34 -21 32 -14 -3 -15 24 -1
33 7 4 7 13 0 26 -13 22 -32 26 -24 4 5 -11 2 -13 -10 -9 -10 4 -15 13 -12 21
3 8 1 11 -4 8 -6 -3 -10 -1 -10 4 0 6 -6 11 -13 11 -7 0 -24 11 -39 25 -15 14
-31 25 -35 25 -14 1 -53 38 -53 50 0 6 -4 9 -9 5 -5 -3 -13 4 -16 16 -11 33
-14 99 -5 99 5 0 34 35 65 79 75 104 82 107 192 91 82 -11 94 -11 168 9 130
34 184 40 300 33 61 -4 167 -6 236 -4z m1167 -585 c-66 -236 -104 -529 -93
-720 7 -133 -5 -165 -25 -67 -28 136 -10 378 50 653 11 52 20 107 20 122 0 19
10 35 33 53 17 14 33 26 33 26 1 0 -7 -30 -18 -67z m-2346 4 l43 -33 19 -129
c34 -241 22 -579 -25 -666 -24 -46 -29 -3 -23 189 6 196 -5 385 -25 405 -6 6
-27 4 -58 -6 -26 -8 -62 -18 -80 -21 -18 -3 -79 -28 -136 -56 -58 -27 -108
-50 -113 -50 -14 0 -104 -64 -104 -74 0 -16 -111 -114 -150 -131 -20 -9 -54
-32 -75 -51 -21 -19 -42 -34 -46 -34 -4 0 -31 -25 -60 -55 -53 -56 -75 -66
-45 -21 33 52 116 126 172 155 38 19 90 61 143 115 83 84 87 87 225 145 198
82 252 101 293 101 l35 0 -7 57 c-4 31 -15 88 -24 125 -10 37 -14 68 -10 68 4
0 27 -15 51 -33z m2976 -629 c75 -70 132 -135 132 -150 0 -6 -16 -1 -36 11
-19 12 -32 17 -29 11 9 -14 -5 -12 -35 5 l-25 14 23 1 c36 0 22 22 -32 49 -43
23 -45 26 -27 36 27 14 15 29 -36 50 -24 9 -40 21 -37 26 12 20 38 6 102 -53z
m-3207 -77 c-12 -16 -21 -33 -21 -39 0 -5 -7 -15 -15 -22 -8 -7 -15 -19 -15
-28 0 -18 -49 -120 -61 -128 -24 -14 6 116 37 165 26 41 66 81 82 81 10 0 8
-8 -7 -29z m-631 -90 c0 -9 -34 -34 -63 -44 -16 -6 -16 -4 -2 23 11 21 23 30
40 30 14 0 25 -4 25 -9z m3979 -14 c14 -6 34 -27 44 -45 l19 -33 -28 7 c-26 7
-124 70 -124 80 0 9 67 3 89 -9z m-2693 -65 c-13 -15 -12 -17 11 -19 19 -1 22
1 12 8 -11 7 -11 9 4 9 9 0 17 -4 17 -10 0 -5 4 -10 10 -10 5 0 22 -13 37 -29
16 -15 38 -31 51 -35 12 -4 22 -13 22 -21 0 -7 15 -30 34 -49 18 -20 31 -37
30 -39 -2 -2 10 -16 26 -32 17 -16 30 -32 30 -36 0 -8 79 -139 90 -149 6 -5
58 -102 75 -137 5 -13 16 -23 23 -23 6 0 12 -6 12 -13 0 -7 28 -37 61 -67 34
-30 67 -61 74 -67 8 -7 17 -13 22 -13 14 -1 53 -37 53 -50 0 -6 4 -9 9 -6 5 3
12 -1 15 -9 3 -8 9 -15 13 -14 4 1 19 1 33 0 23 -2 24 -2 7 -15 -18 -14 -18
-14 0 -19 15 -3 14 -6 -8 -15 -14 -6 -45 -40 -69 -79 -25 -37 -54 -78 -65 -90
-21 -24 -41 -31 -29 -11 4 7 3 8 -4 4 -7 -4 -12 -14 -12 -22 0 -21 -14 -17
-25 8 -7 15 -21 23 -42 26 -66 7 -136 59 -135 99 1 31 -1 36 -49 138 -18 39
-33 73 -34 77 0 4 -6 13 -14 20 -11 11 -12 6 -6 -32 3 -25 10 -58 15 -75 5
-16 11 -41 12 -55 2 -14 7 -31 11 -37 5 -8 3 -13 -3 -13 -6 0 -8 -4 -5 -10 9
-15 -10 -12 -73 11 -42 16 -82 22 -153 23 -89 1 -99 3 -140 31 -50 35 -214
192 -258 249 -17 21 -28 42 -25 47 3 5 0 9 -6 9 -6 0 -8 5 -5 10 4 6 1 19 -7
28 -11 15 -11 15 3 5 9 -7 19 -10 22 -6 4 3 7 1 7 -5 0 -25 37 -16 65 16 26
29 63 53 87 56 4 1 13 7 20 14 16 16 21 16 76 -9 48 -22 64 -37 56 -51 -3 -4
2 -5 11 -2 9 4 23 -3 35 -17 l20 -24 -9 30 c-5 17 -15 51 -22 77 -7 26 -16 45
-20 43 -3 -3 -4 7 -1 20 3 16 0 25 -8 25 -9 0 -10 3 -1 13 8 10 6 19 -9 35
-23 24 -25 42 -7 61 7 9 7 11 1 8 -7 -4 -14 -1 -17 6 -8 23 -5 142 4 153 11
14 8 36 -6 47 -6 5 -4 7 5 6 30 -3 40 1 40 17 0 8 5 12 11 9 7 -5 5 -12 -5
-23z m-1382 -27 c-41 -39 -44 -40 -44 -22 0 25 31 57 56 57 25 0 25 -1 -12
-35z m671 15 c3 -5 1 -10 -4 -10 -6 0 -11 5 -11 10 0 6 2 10 4 10 3 0 8 -4 11
-10z m3433 -40 c83 -60 112 -95 112 -137 0 -12 -8 -6 -24 18 -13 19 -57 57
-98 84 -96 64 -97 65 -62 65 18 0 48 -12 72 -30z m-3517 -38 c-6 -2 -11 -10
-11 -18 0 -8 -4 -14 -9 -14 -5 0 -7 9 -4 20 3 11 9 20 14 20 5 0 10 8 10 18 1
14 2 14 6 -3 3 -10 0 -21 -6 -23z m-611 -11 c-17 -15 -30 -35 -30 -43 0 -9 -7
-21 -15 -28 -19 -16 -19 -35 1 -54 13 -14 13 -16 0 -16 -8 0 -24 -12 -36 -27
l-22 -28 24 -6 c19 -5 20 -7 6 -13 -9 -4 -21 -21 -27 -38 -13 -37 -23 -31 -27
14 -2 34 28 126 73 216 22 45 29 52 54 52 l29 0 -30 -29z m4095 -21 c3 -5 2
-10 -4 -10 -5 0 -13 5 -16 10 -3 6 -2 10 4 10 5 0 13 -4 16 -10z m115 -95 c13
-14 21 -27 18 -30 -10 -10 -36 6 -41 25 -3 10 -15 20 -28 23 -23 4 -23 4 2 6
16 0 35 -9 49 -24z m-4276 -177 c-16 -18 -35 -43 -41 -55 -12 -21 -12 -22 12
-13 16 6 25 6 25 -1 0 -5 -7 -12 -15 -15 -8 -4 -15 -17 -15 -30 0 -14 -7 -35
-15 -48 -18 -27 -10 -86 11 -86 8 0 14 5 14 12 0 6 3 9 6 5 4 -3 -3 -21 -15
-40 -11 -19 -21 -50 -22 -68 0 -30 -1 -32 -9 -12 -5 13 -12 45 -16 73 -6 48
-8 49 -33 44 -34 -8 -101 -45 -101 -56 0 -5 -10 -13 -22 -18 -24 -11 -47 -25
-124 -77 -26 -18 -54 -33 -61 -33 -8 0 -50 -27 -95 -60 -83 -62 -94 -67 -100
-49 -6 17 -168 -66 -227 -116 -29 -25 -56 -45 -59 -45 -4 0 -27 -18 -52 -40
-32 -29 -46 -36 -48 -25 -3 12 -7 12 -30 -2 -15 -10 -42 -30 -61 -45 -24 -19
-38 -24 -46 -18 -15 13 -72 -27 -188 -133 -48 -44 -90 -77 -94 -73 -6 6 -2 20
22 79 7 16 5 17 -21 5 -42 -18 -124 -80 -124 -94 0 -7 -4 -15 -8 -18 -4 -3 -7
8 -6 24 2 37 -20 46 -35 14 -23 -52 -21 -65 89 -454 l38 -135 -27 -17 c-21
-15 -27 -15 -29 -4 -2 9 -11 12 -24 8 -17 -4 -19 -2 -13 18 5 15 4 20 -4 16
-6 -4 -11 0 -11 9 0 10 -5 13 -12 9 -8 -5 -9 -2 -5 10 5 12 3 16 -5 14 -15 -5
-38 15 -38 32 0 6 -5 8 -10 5 -6 -3 -10 2 -10 12 0 10 -7 27 -15 37 -13 17
-15 17 -21 3 -3 -9 -10 -14 -16 -11 -9 6 -7 -20 8 -96 2 -14 1 -20 -3 -15 -4
6 -19 10 -33 10 -20 0 -26 -6 -28 -28 -2 -15 -9 -27 -18 -27 -8 0 -13 -3 -13
-7 4 -22 -3 -24 -21 -8 -19 18 -20 17 -20 -6 0 -15 -12 -34 -30 -49 -16 -14
-29 -30 -30 -36 0 -6 -7 -17 -15 -24 -8 -7 -13 -16 -10 -20 9 -15 -18 -60 -35
-60 -17 0 -33 -29 -46 -82 -5 -23 -12 -28 -35 -28 -16 0 -29 4 -29 10 0 5 15
70 34 144 45 173 94 306 162 433 107 201 274 425 293 394 6 -10 15 -6 34 13
14 14 70 47 124 74 316 155 595 301 988 520 161 89 325 193 340 216 8 11 15
35 15 52 0 44 11 95 20 89 4 -2 16 2 26 10 10 8 28 15 38 15 18 0 16 -4 -10
-32z m4411 -147 c33 -21 82 -51 110 -66 27 -16 97 -61 155 -100 112 -77 322
-195 559 -316 80 -40 167 -88 195 -107 28 -19 85 -51 126 -72 41 -21 91 -54
109 -74 19 -20 40 -36 45 -36 6 0 46 -30 90 -66 160 -135 310 -386 428 -714
78 -216 85 -241 70 -238 -8 2 -20 17 -25 33 -29 91 -135 326 -184 410 -47 78
-117 180 -143 208 -16 17 -37 46 -47 64 -20 38 -29 41 -38 13 -6 -19 -9 -17
-25 16 -11 20 -37 52 -60 71 -22 19 -38 39 -34 44 3 5 0 9 -5 9 -6 0 -11 -5
-11 -12 0 -23 -14 3 -16 30 -1 15 -2 37 -3 49 -1 23 -47 76 -90 103 -13 8 -30
21 -38 29 -8 7 -17 11 -20 7 -3 -3 -12 -1 -20 5 -7 6 -13 8 -13 5 0 -4 -14 3
-32 16 -18 12 -39 23 -47 25 -8 1 -18 9 -23 17 -5 9 -16 16 -23 16 -8 0 -15 4
-15 9 0 12 -69 52 -80 46 -4 -3 -10 2 -14 10 -3 8 -14 15 -25 15 -11 0 -41 14
-66 31 -25 17 -83 49 -128 70 -45 22 -90 44 -99 49 -10 6 -27 10 -38 10 -11 0
-20 4 -20 9 0 5 -42 29 -92 54 -85 41 -130 74 -226 165 -19 18 -47 39 -63 47
-15 8 -34 23 -41 32 -15 20 -39 35 -111 70 -27 13 -59 33 -70 45 l-22 21 30
-7 c17 -4 57 -24 90 -45z m-4448 -223 c-3 -8 -6 -5 -6 6 -1 11 2 17 5 13 3 -3
4 -12 1 -19z m1573 -623 c0 -3 -8 -13 -17 -24 -87 -92 -91 -108 -11 -41 l48
41 21 -20 c20 -18 20 -21 5 -36 -20 -20 -20 -25 0 -25 8 0 12 5 9 10 -3 6 0
10 9 10 26 0 23 -23 -8 -52 l-31 -27 32 11 c17 7 30 16 27 20 -3 4 -1 8 4 8 6
0 12 -7 15 -15 7 -16 -48 -66 -99 -90 -17 -8 -37 -22 -45 -32 -10 -13 -4 -11
26 6 22 13 56 33 75 43 19 11 41 25 48 30 17 15 28 2 13 -16 -7 -8 -44 -34
-84 -57 -87 -52 -82 -48 -74 -55 3 -3 18 3 34 14 15 11 57 34 91 51 51 26 63
29 60 16 -1 -9 -42 -38 -90 -63 -49 -26 -88 -50 -88 -54 0 -5 40 12 89 37 94
47 123 56 102 31 -7 -8 -42 -29 -78 -46 -35 -17 -62 -34 -59 -37 3 -4 38 10
78 30 53 27 74 33 80 24 10 -16 -59 -59 -159 -97 -18 -7 -30 -16 -27 -21 3 -5
12 -5 22 0 9 5 31 14 47 21 17 7 41 18 55 25 14 7 40 13 59 13 l34 1 -36 -25
c-20 -13 -38 -24 -41 -24 -3 0 -30 -11 -60 -25 -30 -14 -60 -25 -67 -25 -10 0
-10 -3 -1 -12 10 -10 15 -10 21 1 5 7 13 11 19 7 6 -3 13 -2 17 4 3 5 15 10
26 10 10 0 19 5 19 11 0 6 7 9 15 5 8 -3 15 0 15 6 0 6 3 9 6 5 4 -3 20 1 36
9 17 9 33 13 36 9 9 -9 -37 -47 -48 -40 -4 3 -10 -1 -13 -8 -2 -6 -22 -18 -43
-26 -79 -28 -85 -31 -79 -41 4 -6 12 -6 23 -1 17 10 55 23 60 22 1 -1 27 12
58 29 58 31 80 37 70 21 -9 -14 -109 -69 -165 -90 -49 -18 -50 -18 -68 1 -10
11 -17 23 -16 27 5 12 -8 41 -18 41 -6 0 -9 12 -7 28 1 15 -2 26 -7 25 -6 -1
-11 12 -12 29 -1 17 -8 37 -15 45 -9 12 -9 16 3 24 12 7 12 9 -2 9 -18 0 -21
28 -6 48 7 9 6 11 -4 7 -8 -3 -20 4 -28 16 -12 20 -10 25 15 49 16 14 38 31
49 38 11 6 15 12 9 12 -6 0 -28 -11 -48 -25 -20 -14 -41 -25 -45 -25 -20 0
-18 30 4 54 23 25 21 38 -2 15 -7 -7 -19 -9 -27 -6 -22 9 -21 71 2 93 16 17
17 17 20 -4 5 -30 12 -28 52 13 29 30 70 47 70 30z m-260 -260 c41 -8 89 -15
105 -15 23 0 27 -3 15 -10 -10 -6 -11 -10 -2 -10 6 0 12 -7 12 -15 0 -9 10
-20 23 -25 l22 -9 -22 -7 c-27 -8 -30 -23 -5 -23 67 -2 62 -12 -23 -41 -33
-11 -49 -17 -35 -14 80 16 93 17 88 4 -2 -8 -17 -18 -33 -23 -16 -6 -38 -19
-50 -30 l-20 -21 30 19 c35 22 103 36 111 23 3 -4 -21 -20 -53 -33 -32 -14
-75 -34 -96 -45 -46 -24 -83 -28 -54 -6 24 18 21 29 -4 16 -11 -7 -23 -9 -26
-6 -10 10 10 28 51 47 22 10 34 19 26 19 -8 0 -28 -7 -44 -15 -32 -17 -56 -19
-56 -6 0 8 38 29 80 44 11 4 9 6 -5 6 -11 0 -31 -6 -45 -14 -53 -30 -68 -10
-22 31 l27 25 -36 -21 c-34 -19 -37 -19 -43 -4 -6 16 8 33 27 34 4 0 7 5 7 11
0 8 -4 8 -15 -1 -8 -7 -23 -9 -37 -5 l-22 8 28 24 28 24 -28 -6 c-16 -4 -35
-9 -43 -11 -11 -4 -11 0 2 14 16 18 16 18 -12 14 -25 -3 -30 -1 -28 17 1 12 5
21 10 21 5 0 7 7 3 15 -7 19 8 20 26 2 20 -20 43 -10 26 11 -11 14 -10 15 12
8 14 -4 59 -14 100 -21z m-180 11 c0 -2 -7 -6 -15 -10 -8 -3 -15 -1 -15 4 0 6
7 10 15 10 8 0 15 -2 15 -4z m-66 -12 c23 -9 20 -34 -4 -34 -13 0 -20 7 -20
20 0 22 1 23 24 14z m-29 -35 c7 -20 30 -25 40 -9 3 6 13 10 21 10 8 0 13 -4
10 -9 -3 -5 1 -11 9 -15 26 -9 16 -26 -14 -26 -17 0 -33 -5 -37 -11 -5 -9 6
-10 41 -7 29 4 42 2 34 -3 -10 -6 -11 -9 -1 -9 6 0 12 -4 12 -9 0 -5 -40 -19
-90 -30 -49 -12 -98 -25 -107 -28 -15 -6 -16 -4 -5 9 10 13 10 17 -5 23 -16 6
-14 8 10 21 37 20 34 24 -10 17 -21 -3 -35 -2 -31 2 10 11 129 34 122 24 -3
-5 -1 -9 4 -9 6 0 13 7 16 16 6 14 1 16 -31 9 -62 -11 -76 -11 -81 4 -3 11 2
12 23 7 17 -4 24 -3 20 4 -3 5 -13 10 -21 10 -21 0 -17 14 9 26 29 13 55 6 62
-17z m133 -146 c-6 -7 -16 -13 -24 -13 -7 0 -47 -13 -88 -29 l-76 -29 6 24 c4
16 2 24 -7 24 -17 0 -3 13 19 17 9 2 46 11 82 21 46 13 70 15 82 8 13 -8 14
-14 6 -23z m30 -38 c-4 -14 -168 -66 -198 -62 -22 2 -20 5 20 24 91 44 185 64
178 38z m1065 -29 c-12 -18 -2 -69 14 -82 12 -8 13 -13 4 -18 -8 -5 -9 -20 -5
-44 4 -20 3 -33 -2 -29 -4 4 -9 15 -11 25 -8 48 -21 159 -21 176 1 18 2 18 14
1 8 -10 10 -23 7 -29z m-458 -3 c-26 -20 -132 -68 -168 -77 -52 -12 -25 15 38
39 33 12 78 32 100 43 44 22 62 19 30 -5z m-261 -12 c-17 -14 -185 -72 -200
-69 -32 6 20 45 95 71 57 19 80 23 94 15 11 -5 15 -13 11 -17z m-309 0 c4 -8
-28 -20 -100 -39 -22 -6 -58 -15 -79 -21 -22 -6 -42 -8 -45 -6 -13 13 86 59
146 68 12 2 25 6 28 9 7 7 43 -1 50 -11z m615 -8 c0 -20 -129 -88 -185 -99
-22 -4 -35 -1 -44 10 -12 14 -10 16 12 16 15 0 41 6 59 14 49 22 72 29 81 27
4 0 10 6 13 14 3 8 10 13 14 10 5 -3 11 -2 14 3 5 9 36 12 36 5z m-596 -28
c-4 -8 -12 -16 -20 -16 -19 -2 -18 -2 -112 -32 -96 -31 -109 -33 -92 -12 7 8
21 15 31 15 10 0 20 4 24 9 3 6 13 10 23 9 13 0 100 24 149 41 1 1 0 -6 -3
-14z m320 -3 c2 -4 2 -12 -2 -17 -10 -14 -35 -18 -27 -5 9 14 -1 13 -35 -5
-17 -9 -30 -13 -30 -9 0 3 -10 0 -23 -9 -29 -19 -113 -28 -94 -10 35 35 197
77 211 55z m281 -22 c-3 -5 -12 -10 -18 -10 -7 0 -6 4 3 10 19 12 23 12 15 0z
m-595 -14 c0 -5 -168 -60 -209 -70 -55 -12 2 17 85 44 84 27 124 35 124 26z
m544 -18 c-10 -13 -23 -26 -29 -30 -20 -14 -106 -39 -115 -33 -16 10 -11 25 5
19 9 -4 15 -1 15 7 0 10 3 10 12 1 8 -8 16 -6 30 10 12 14 18 17 18 7 1 -10 4
-9 14 4 7 9 20 17 29 17 9 0 19 5 22 10 3 6 9 10 12 10 3 0 -2 -10 -13 -22z
m556 12 c0 -5 -5 -10 -11 -10 -5 0 -7 5 -4 10 3 6 8 10 11 10 2 0 4 -4 4 -10z
m-813 -11 l28 -11 -45 -19 c-25 -11 -53 -22 -62 -25 -10 -4 -15 -10 -12 -15 3
-5 -7 -9 -23 -9 -25 0 -21 4 32 36 73 44 73 44 49 44 -11 0 -29 -8 -40 -18
-21 -20 -88 -47 -79 -32 4 6 -2 10 -12 11 -16 0 -16 1 2 8 11 5 23 7 26 5 3
-2 23 6 45 16 44 23 53 24 91 9z m46 -4 c-3 -9 -8 -14 -10 -11 -3 3 -2 9 2 15
9 16 15 13 8 -4z m-3013 -36 c0 -11 -4 -18 -9 -14 -6 3 -9 14 -8 25 2 24 17
15 17 -11z m2680 11 c0 -5 -5 -10 -11 -10 -5 0 -7 5 -4 10 3 6 8 10 11 10 2 0
4 -4 4 -10z m-50 -9 c0 -13 -99 -51 -117 -44 -12 5 -14 3 -8 -7 6 -10 4 -12
-9 -7 -10 4 -21 7 -24 7 -18 0 40 30 62 32 14 1 26 6 26 10 0 4 6 5 14 2 8 -3
17 -1 21 5 7 13 35 15 35 2z m660 4 c0 -5 -75 -39 -111 -50 -21 -7 -22 -6 -7
8 9 9 27 18 41 21 15 2 34 9 44 15 19 11 33 14 33 6z m440 -5 c0 -5 -2 -10 -4
-10 -3 0 -8 5 -11 10 -3 6 -1 10 4 10 6 0 11 -4 11 -10z m-795 -45 c-81 -40
-82 -40 -64 -18 23 27 65 48 101 51 29 2 24 -2 -37 -33z m-2015 15 c0 -5 5
-10 11 -10 5 0 7 5 4 10 -3 6 3 10 14 10 12 0 21 -6 22 -12 0 -9 2 -10 5 -1 7
16 521 18 637 1 48 -6 87 -15 87 -20 0 -4 7 -5 16 -1 14 5 16 1 11 -23 -6 -27
-6 -27 5 -6 8 16 19 22 42 21 30 -1 31 -1 6 -10 -19 -7 -15 -8 18 -4 23 3 42
1 42 -3 0 -5 12 -7 26 -4 15 3 29 -1 34 -8 4 -6 19 -13 32 -13 16 -1 24 -7 21
-15 -3 -7 0 -10 9 -7 10 4 13 -3 12 -32 -2 -52 -3 -53 -15 -53 -5 0 -7 5 -3
12 4 7 3 8 -5 4 -6 -4 -9 -11 -6 -16 9 -14 -13 -22 -34 -11 -10 6 -21 18 -25
26 -4 10 -2 14 5 9 7 -4 10 -1 7 7 -3 8 -11 14 -19 15 -37 1 -57 15 -52 37 2
12 -5 4 -16 -18 l-19 -40 -2 30 c-1 17 -4 24 -7 17 -2 -6 -9 -10 -14 -6 -5 3
-9 -2 -9 -10 0 -8 5 -18 10 -21 6 -3 10 -12 10 -18 -1 -7 -5 -6 -13 4 -20 25
-45 30 -56 11 -5 -9 -13 -17 -18 -17 -4 0 -7 -3 -5 -7 1 -5 -5 -8 -13 -8 -19
0 -19 5 1 35 9 14 12 25 7 25 -5 0 -16 -11 -23 -25 -7 -14 -20 -25 -29 -26
-10 0 -12 -2 -4 -6 10 -3 10 -8 -1 -19 -19 -18 -26 -18 -26 1 0 8 -7 15 -15
15 -9 0 -18 -7 -21 -15 -8 -19 -41 -19 -60 0 -8 8 -21 12 -29 9 -12 -5 -14 0
-9 27 7 36 7 36 5 58 -1 11 -5 10 -15 -5 -10 -13 -11 -23 -4 -31 8 -10 5 -13
-13 -13 -20 0 -21 -2 -9 -11 12 -8 10 -9 -7 -4 -13 3 -23 2 -23 -3 0 -5 -6 -9
-14 -9 -8 0 -12 6 -9 14 3 7 9 10 14 7 5 -3 9 -3 9 0 0 2 3 12 6 21 6 16 5 16
-24 1 -38 -20 -38 -20 -46 0 -3 8 -2 12 4 9 6 -3 10 -2 10 4 0 15 -18 23 -25
11 -8 -13 -25 -13 -25 1 0 5 4 8 9 5 9 -6 35 44 26 52 -3 3 -5 0 -5 -7 0 -7
-4 -9 -10 -6 -5 3 -10 0 -10 -8 0 -8 -9 -17 -21 -20 -12 -3 -18 -3 -15 0 5 5
-18 33 -28 33 -3 0 -7 -8 -7 -17 -1 -17 -2 -17 -6 0 -2 9 -14 17 -25 17 -14 0
-18 -5 -14 -15 3 -8 1 -15 -5 -15 -6 0 -8 -9 -4 -21 5 -16 0 -28 -20 -45 -32
-27 -57 -32 -49 -9 4 8 9 13 13 11 11 -7 43 22 39 35 -2 7 -18 -2 -41 -24 -39
-40 -97 -52 -97 -22 0 18 16 20 23 3 3 -7 5 -4 5 7 0 11 4 31 8 44 5 16 4 22
-4 17 -6 -3 -18 1 -26 10 -9 8 -16 12 -16 8 0 -3 -6 -1 -14 5 -11 9 -16 9 -23
-2 -12 -21 -63 -28 -63 -10 0 9 -6 13 -13 10 -17 -7 -48 17 -51 40 -2 10 4 23
13 30 19 15 51 17 51 3z m1830 5 c0 -11 -54 -26 -69 -19 -13 5 -11 8 9 14 31
10 60 12 60 5z m-100 -29 c-6 -6 -26 -11 -46 -11 -27 0 -31 2 -20 11 20 14 80
14 66 0z m370 -4 c-8 -2 -43 -17 -77 -33 -70 -33 -81 -35 -63 -14 25 30 123
69 145 57 5 -3 2 -8 -5 -10z m101 -14 c-27 -24 -18 -40 17 -32 l27 7 -20 -22
-19 -22 -17 22 c-9 13 -15 29 -12 36 3 7 0 13 -6 13 -6 0 -11 5 -11 10 0 6 11
8 26 4 21 -5 25 -4 19 6 -6 9 -4 11 4 5 9 -5 7 -12 -8 -27z m-566 2 c-3 -5
-11 -10 -16 -10 -6 0 -7 5 -4 10 3 6 11 10 16 10 6 0 7 -4 4 -10z m200 -10
c-16 -11 -38 -20 -47 -20 -9 0 -37 -9 -62 -19 -25 -11 -53 -21 -63 -23 -10 -2
-24 -10 -31 -18 -10 -11 -15 -12 -18 -3 -7 16 -6 23 4 24 4 0 21 9 39 20 17
11 42 22 55 25 39 9 53 12 53 14 0 1 11 4 24 6 14 2 27 7 30 9 2 3 14 5 25 5
18 0 17 -3 -9 -20z m575 5 c-7 -8 -17 -15 -23 -15 -6 0 -2 7 9 15 25 19 30 19
14 0z m405 -33 c-1 -15 -3 -30 -4 -34 0 -5 -5 -8 -11 -8 -15 0 -12 30 3 31 6
0 2 5 -10 11 -25 12 -30 34 -10 41 20 7 36 -13 32 -41z m-542 13 c-21 -16 -26
-14 -17 8 3 9 12 13 20 10 12 -4 11 -8 -3 -18z m-613 8 c-8 -3 -27 -12 -42
-20 -16 -7 -28 -10 -28 -5 0 9 47 30 70 30 13 0 13 0 0 -5z m465 -10 c-10 -3
-29 -12 -40 -19 -12 -8 -25 -11 -28 -7 -4 3 -7 0 -7 -7 0 -7 -3 -10 -7 -7 -3
4 -14 0 -24 -9 -10 -9 -24 -14 -31 -12 -34 12 71 66 127 66 19 0 23 -2 10 -5z
m-250 -12 c-3 -5 -38 -19 -78 -31 -39 -12 -93 -32 -119 -45 -32 -15 -48 -19
-48 -11 0 15 72 52 92 48 4 -1 20 3 35 10 15 6 30 12 33 13 3 1 12 4 20 8 14
5 44 13 63 16 5 0 6 -3 2 -8z m-1765 -21 c0 -5 -7 -10 -15 -10 -8 0 -15 5 -15
10 0 6 7 10 15 10 8 0 15 -4 15 -10z m2190 6 c0 -2 -21 -16 -47 -31 -48 -26
-48 -26 -23 -2 14 14 27 23 30 21 3 -1 12 1 20 7 17 10 20 11 20 5z m-160 -15
c0 -5 -14 -14 -31 -20 -40 -14 -52 -14 -44 0 4 6 9 8 12 5 3 -3 15 1 27 9 23
17 36 19 36 6z m-2130 -10 c0 -5 -7 -12 -16 -15 -14 -5 -15 -4 -4 9 14 17 20
19 20 6z m1875 -1 c3 -5 -1 -10 -10 -10 -9 0 -13 5 -10 10 3 6 8 10 10 10 2 0
7 -4 10 -10z m-1815 -16 c0 -10 6 -14 15 -10 8 3 15 1 15 -4 0 -11 -11 -13
-34 -4 -17 7 -22 34 -6 34 6 0 10 -7 10 -16z m2223 -14 c-55 -31 -73 -36 -73
-20 0 5 7 7 15 4 8 -4 17 1 21 10 3 9 9 14 13 12 3 -2 17 2 31 10 14 7 30 13
35 14 6 0 -13 -14 -42 -30z m-448 12 c-6 -5 -44 -19 -85 -32 -41 -12 -79 -26
-84 -31 -6 -5 -16 -9 -24 -9 -12 0 -12 3 -2 15 7 9 15 13 18 10 3 -3 14 2 24
12 10 9 18 13 18 9 0 -4 10 -1 23 5 12 7 35 14 51 16 16 2 32 5 34 8 3 3 12 5
21 5 9 0 11 -3 6 -8z m-921 -27 c9 -14 14 -25 11 -25 -12 0 -20 6 -17 13 4 13
-16 7 -34 -10 -12 -13 -15 -13 -11 -3 4 8 10 23 13 33 9 23 19 21 38 -8z
m1121 15 c-3 -5 -10 -10 -16 -10 -5 0 -9 5 -9 10 0 6 7 10 16 10 8 0 12 -4 9
-10z m-161 -9 c7 -11 -122 -56 -131 -47 -4 3 1 6 10 6 10 0 17 4 17 8 0 4 12
9 27 10 15 1 36 9 47 17 26 17 24 17 30 6z m-784 -10 c0 -6 -4 -13 -10 -16 -5
-3 -10 1 -10 9 0 9 5 16 10 16 6 0 10 -4 10 -9z m910 -1 c0 -5 -2 -10 -4 -10
-3 0 -8 5 -11 10 -3 6 -1 10 4 10 6 0 11 -4 11 -10z m-1496 -25 c-4 -8 -8 -15
-10 -15 -2 0 -4 7 -4 15 0 8 4 15 10 15 5 0 7 -7 4 -15z m550 0 c-4 -8 -14
-15 -23 -15 -14 1 -13 3 3 15 25 19 27 19 20 0z m996 0 c-14 -17 -30 -20 -30
-6 0 5 8 12 18 14 9 3 19 5 21 6 2 0 -2 -6 -9 -14z m-1403 -17 c-3 -8 -6 -5
-6 6 -1 11 2 17 5 13 3 -3 4 -12 1 -19z m1071 -14 c-9 -9 -22 -14 -30 -11 -8
3 -4 8 12 15 35 15 37 14 18 -4z"/>
<path d="M6070 7539 c0 -5 5 -7 10 -4 6 3 10 8 10 11 0 2 -4 4 -10 4 -5 0 -10
-5 -10 -11z"/>
<path d="M6096 7134 c-11 -43 12 -45 35 -2 8 15 8 19 0 14 -6 -4 -11 -2 -11 3
0 22 -18 10 -24 -15z"/>
<path d="M3170 6675 c-31 -38 40 -64 85 -31 16 12 17 16 6 30 -17 20 -74 21
-91 1z"/>
<path d="M3160 5329 c0 -5 5 -7 10 -4 6 3 10 8 10 11 0 2 -4 4 -10 4 -5 0 -10
-5 -10 -11z"/>
<path d="M3127 5293 c-12 -11 -8 -58 7 -79 22 -30 30 -9 12 31 -9 19 -14 40
-11 45 7 11 2 13 -8 3z"/>
<path d="M3055 5191 c3 -20 35 -28 35 -8 0 8 -9 17 -19 20 -13 3 -18 0 -16
-12z"/>
<path d="M6777 5471 c4 -16 8 -17 18 -8 9 9 10 14 1 19 -19 13 -24 9 -19 -11z"/>
<path d="M4524 1744 c-18 -14 -18 -15 4 -4 12 6 22 13 22 15 0 8 -5 6 -26 -11z"/>
<path d="M4515 1700 c-3 -5 -2 -10 4 -10 5 0 13 5 16 10 3 6 2 10 -4 10 -5 0
-13 -4 -16 -10z"/>
<path d="M4515 1640 c-3 -5 -2 -10 4 -10 5 0 13 5 16 10 3 6 2 10 -4 10 -5 0
-13 -4 -16 -10z"/>
<path d="M4445 1606 c-16 -6 -25 -15 -19 -18 5 -4 21 2 34 13 29 22 26 23 -15
5z"/>
<path d="M4500 1450 c0 -5 7 -10 15 -10 8 0 15 5 15 10 0 6 -7 10 -15 10 -8 0
-15 -4 -15 -10z"/>
<path d="M4295 1451 c-53 -25 -43 -26 20 -1 28 10 43 19 35 19 -8 0 -33 -8
-55 -18z"/>
<path d="M4305 1320 c-3 -5 -2 -10 4 -10 5 0 13 5 16 10 3 6 2 10 -4 10 -5 0
-13 -4 -16 -10z"/>
<path d="M3980 1440 c0 -5 4 -10 9 -10 6 0 13 5 16 10 3 6 -1 10 -9 10 -9 0
-16 -4 -16 -10z"/>
<path d="M2427 1123 c-11 -10 -8 -33 4 -33 7 0 17 -7 24 -16 6 -9 18 -14 26
-12 9 4 4 11 -19 24 -17 11 -30 25 -27 32 5 13 2 16 -8 5z"/>
<path d="M2951 1094 c0 -11 3 -14 6 -6 3 7 2 16 -1 19 -3 4 -6 -2 -5 -13z"/>
<path d="M3220 1071 c-12 -24 -13 -34 -1 -26 5 3 12 -3 16 -14 4 -13 12 -17
25 -14 27 7 25 18 -6 32 -17 7 -24 17 -20 26 8 22 -1 18 -14 -4z"/>
<path d="M3007 1065 c3 -8 9 -12 14 -9 12 7 11 11 -5 17 -10 4 -13 1 -9 -8z"/>
<path d="M2920 1049 c0 -13 14 -17 35 -9 17 6 16 7 -8 12 -15 3 -27 2 -27 -3z"/>
<path d="M3278 1053 c7 -3 16 -2 19 1 4 3 -2 6 -13 5 -11 0 -14 -3 -6 -6z"/>
<path d="M3112 1020 c-8 -13 -8 -20 -2 -20 6 0 13 7 17 15 9 24 -1 27 -15 5z"/>
<path d="M3010 985 c0 -8 4 -15 10 -15 5 0 7 7 4 15 -4 8 -8 15 -10 15 -2 0
-4 -7 -4 -15z"/>
<path d="M3051 983 c0 -4 4 -17 8 -27 6 -15 9 -16 13 -5 3 8 -1 20 -8 27 -8 7
-14 9 -13 5z"/>
<path d="M3110 980 c0 -5 5 -10 11 -10 5 0 7 5 4 10 -3 6 -8 10 -11 10 -2 0
-4 -4 -4 -10z"/>
</g>
</svg>
